PathFileType   4   (X/Y/Z)
DataRate	CameraRate	NumFrames	NumMarkers	Units	OrigDataRate	OrigDataStartFrame	OrigNumFrames
120.0	120.0	4	37	mm	120.0	72	142
Frame#	Time	midhip	hip_r	hip_l	knee_r	knee_l	ankle_r	ankle_l	midasis	asis_r	asis_l	psis_r	psis_l	epicondLat_r	epicondLat_l	epicondMed_r	epicondMed_l	malleolusLat_r	malleolusLat_l	malleolusMedv_r	malleolusMedv_l	neck	subclavicle_r	subclavicle_l	sternalnotch	xyphoidprocess	thighwand_r	thighwand_l	upperleg1_r	upperleg1_l	upperleg2_r	upperleg2_l	shankwand_r	shankwand_l	lowerleg1_r	lowerleg1_l	toe_r	toe_l
 	 	X1	Y1	Z1	X2	Y2	Z2	X3	Y3	Z3	X4	Y4	Z4	X5	Y5	Z5	X6	Y6	Z6	X7	Y7	Z7	X8	Y8	Z8	X9	Y9	Z9	X10	Y10	Z10	X11	Y11	Z11	X12	Y12	Z12	X13	Y13	Z13	X14	Y14	Z14	X15	Y15	Z15	X16	Y16	Z16	X17	Y17	Z17	X18	Y18	Z18	X19	Y19	Z19	X20	Y20	Z20	X21	Y21	Z21	X22	Y22	Z22	X23	Y23	Z23	X24	Y24	Z24	X25	Y25	Z25	X26	Y26	Z26	X27	Y27	Z27	X28	Y28	Z28	X29	Y29	Z29	X30	Y30	Z30	X31	Y31	Z31	X32	Y32	Z32	X33	Y33	Z33	X34	Y34	Z34	X35	Y35	Z35	X36	Y36	Z36	X37	Y37	Z37

	72	0.77500	1097.480	882.354	-199.679	1088.146	850.843	-135.641	1098.869	867.386	-284.773	997.767	456.199	-131.746	1200.997	460.018	-265.341	781.477	109.845	-151.898	1273.808	71.234	-238.730	1178.853	945.629	-194.474	1170.250	932.357	-74.822	1187.456	958.902	-314.126	987.887	984.062	-170.803	999.393	987.483	-256.967	1005.209	455.067	-73.733	1211.313	459.882	-322.416	994.287	453.765	-183.265	1176.673	440.137	-217.177	765.987	117.419	-115.806	1257.943	65.853	-273.949	796.496	121.067	-179.168	1277.146	87.041	-213.763	997.631	1414.288	-183.967	1120.132	1330.590	-136.805	1122.051	1333.528	-241.950	1104.410	1341.066	-186.589	1174.704	1172.378	-201.698	1072.213	544.238	3.694	1322.493	569.069	-257.777	1096.307	608.646	-59.192	1250.285	607.810	-306.528	1081.753	523.786	-84.092	1245.088	519.720	-303.080	842.375	224.526	-20.797	1259.122	203.018	-367.013	822.440	200.584	-96.851	1248.664	167.224	-295.376	878.279	40.436	-135.037	1396.597	41.804	-261.920
	73	0.78333	1105.169	883.658	-201.409	1095.904	851.912	-137.133	1106.594	868.941	-286.213	1007.868	456.273	-131.515	1204.970	460.600	-266.122	785.563	113.806	-150.497	1273.872	71.213	-238.541	1186.635	946.853	-195.678	1178.064	933.199	-76.143	1195.207	960.507	-315.213	995.650	985.227	-171.738	1007.087	989.081	-258.131	1014.846	455.545	-73.437	1216.143	460.492	-323.036	1005.508	452.635	-183.013	1179.815	441.087	-218.085	769.763	122.077	-114.693	1258.351	65.960	-273.932	800.959	125.003	-177.784	1277.253	86.984	-213.676	1003.964	1415.566	-185.007	1127.043	1331.863	-138.119	1129.542	1334.593	-243.353	1111.590	1342.369	-187.888	1182.339	1173.646	-202.430	1080.570	544.955	4.135	1327.648	568.735	-256.462	1105.332	609.149	-58.842	1256.431	607.863	-305.560	1091.332	523.596	-83.322	1250.171	520.854	-302.763	847.038	229.037	-20.016	1261.849	203.059	-367.197	827.628	204.690	-95.730	1250.279	167.112	-295.219	879.429	40.510	-134.814	1397.026	41.529	-261.561
	74	0.79167	1112.772	884.857	-203.155	1103.608	853.033	-138.526	1114.244	870.394	-287.571	1018.527	456.290	-131.127	1208.827	461.102	-267.012	790.188	117.865	-149.009	1273.897	71.185	-238.395	1194.385	948.039	-196.894	1185.863	934.128	-77.474	1202.907	961.949	-316.314	1003.404	986.417	-172.773	1014.796	990.672	-259.363	1024.956	455.996	-72.982	1220.654	460.983	-323.793	1018.685	449.907	-182.326	1183.239	442.172	-218.476	774.088	126.852	-113.512	1258.636	66.031	-273.913	806.287	128.501	-176.292	1277.425	86.981	-213.579	1011.179	1416.130	-186.487	1133.889	1333.482	-139.487	1136.667	1335.988	-244.625	1118.775	1343.660	-189.173	1190.052	1175.365	-203.244	1089.124	545.729	4.733	1332.726	568.200	-255.720	1114.021	609.391	-58.380	1262.525	607.936	-305.077	1101.664	523.314	-82.017	1255.198	521.422	-302.506	852.268	233.674	-19.188	1264.218	202.977	-367.449	833.053	209.279	-94.427	1252.013	166.753	-295.252	880.725	40.560	-134.667	1397.418	41.304	-261.271
	75	0.80000	1120.328	886.008	-204.952	1111.232	854.178	-139.823	1121.821	871.729	-288.850	1029.714	456.237	-130.589	1212.603	461.537	-267.983	795.398	121.982	-147.426	1273.926	71.145	-238.279	1202.087	949.163	-198.104	1193.610	935.113	-78.799	1210.564	963.214	-317.409	1011.141	987.612	-173.898	1022.525	992.216	-260.629	1035.524	456.398	-72.379	1224.860	461.366	-324.673	1031.608	448.354	-181.836	1186.637	443.217	-219.000	779.013	131.696	-112.253	1258.841	66.067	-273.884	811.810	131.890	-174.669	1277.847	86.890	-213.516	1018.762	1416.659	-188.049	1140.804	1335.003	-140.480	1143.877	1337.482	-245.636	1125.968	1344.907	-190.441	1197.722	1177.067	-204.029	1097.884	546.537	5.469	1337.689	567.516	-255.601	1123.457	609.832	-58.013	1268.495	608.161	-305.115	1112.213	523.616	-80.849	1259.977	521.410	-302.647	858.111	238.389	-18.300	1266.273	202.787	-367.747	838.974	213.739	-93.275	1253.736	166.491	-295.735	882.159	40.578	-134.594	1397.765	41.113	-261.049
